<?xml version="1.0" encoding="UTF-8"?>
<svg version="1.1" xmlns="http://www.w3.org/2000/svg" width="88" height="88">
<path d="M0 0 C7.82538879 1.44811983 15.49788813 3.34365403 23.19140625 5.37109375 C24.41786362 5.69408951 25.64432098 6.01708527 26.90794373 6.34986877 C29.48089226 7.02964191 32.05333097 7.7111185 34.62524414 8.39477539 C37.92451939 9.27081993 41.22752144 10.13189208 44.53151035 10.98995876 C47.6918747 11.81440785 50.84754091 12.65648702 54.00390625 13.49609375 C55.19230606 13.80244247 56.38070587 14.1087912 57.6051178 14.42442322 C58.69392746 14.71805252 59.78273712 15.01168182 60.90454102 15.31420898 C61.86699234 15.56798813 62.82944366 15.82176727 63.82106018 16.08323669 C64.54011032 16.38576859 65.25916046 16.68830048 66 17 C67.25367393 20.7610218 66.57848671 22.4054764 65.55297852 26.21557617 C65.38731384 26.84024277 65.22164917 27.46490936 65.05096436 28.10850525 C64.50154219 30.17220627 63.9402984 32.23249481 63.37890625 34.29296875 C62.9956016 35.72338112 62.61303774 37.1539922 62.23118591 38.58479309 C61.22422729 42.34986921 60.20721657 46.11215893 59.18811035 49.8739624 C58.14993778 53.71317522 57.12126492 57.55493019 56.09179688 61.39648438 C54.07050279 68.93351421 52.0385858 76.46762651 50 84 C42.17461121 82.55188017 34.50211187 80.65634597 26.80859375 78.62890625 C25.58213638 78.30591049 24.35567902 77.98291473 23.09205627 77.65013123 C20.51910774 76.97035809 17.94666903 76.2888815 15.37475586 75.60522461 C12.07548061 74.72918007 8.77247856 73.86810792 5.46848965 73.01004124 C2.3081253 72.18559215 -0.84754091 71.34351298 -4.00390625 70.50390625 C-5.78650597 70.04438316 -5.78650597 70.04438316 -7.6051178 69.57557678 C-9.23833229 69.13513283 -9.23833229 69.13513283 -10.90454102 68.68579102 C-11.86699234 68.43201187 -12.82944366 68.17823273 -13.82106018 67.91676331 C-14.54011032 67.61423141 -15.25916046 67.31169952 -16 67 C-17.25367393 63.2389782 -16.57848671 61.5945236 -15.55297852 57.78442383 C-15.30448151 56.84742393 -15.30448151 56.84742393 -15.05096436 55.89149475 C-14.50154219 53.82779373 -13.9402984 51.76750519 -13.37890625 49.70703125 C-12.9956016 48.27661888 -12.61303774 46.8460078 -12.23118591 45.41520691 C-11.22422729 41.65013079 -10.20721657 37.88784107 -9.18811035 34.1260376 C-8.14993778 30.28682478 -7.12126492 26.44506981 -6.09179688 22.60351562 C-4.07050279 15.06648579 -2.0385858 7.53237349 0 0 Z " fill="#01A2FF" transform="translate(19,2)"/>
<path d="M0 0 C4.71403788 0.47939368 8.66579301 0.96834048 13 3 C12.68817931 4.41681634 12.37551263 5.83344651 12.0625 7.25 C11.88847656 8.03890625 11.71445313 8.8278125 11.53515625 9.640625 C11.052444 11.76878703 10.53836822 13.88532842 10 16 C5.51474352 15.343621 1.33085971 14.29925791 -3 13 C-2.45144652 8.428721 -1.58255197 4.32564205 0 0 Z " fill="#F3FAFF" transform="translate(62,23)"/>
<path d="M0 0 C2.875 -0.125 2.875 -0.125 6 0 C8 2 8 2 8.01171875 4.3125 C7.90472656 5.199375 7.79773437 6.08625 7.6875 7 C7.58824219 7.886875 7.48898438 8.77375 7.38671875 9.6875 C7 12 7 12 6 14 C-1.75 13.25 -1.75 13.25 -4 11 C-3.44444444 6.44444444 -3.44444444 6.44444444 -2 5 C0.69082872 5.17635452 3.32851446 5.61835921 6 6 C5.67 5.01 5.34 4.02 5 3 C3.02 3 1.04 3 -1 3 C-0.67 2.01 -0.34 1.02 0 0 Z " fill="#D5EFFF" transform="translate(43,57)"/>
<path d="M0 0 C0.99 0 1.98 0 3 0 C2.34 3.96 1.68 7.92 1 12 C2.32 11.67 3.64 11.34 5 11 C6.1375213 8.91965706 6.1375213 8.91965706 6.75 6.4375 C6.99234375 5.61121094 7.2346875 4.78492187 7.484375 3.93359375 C7.65453125 3.29550781 7.8246875 2.65742187 8 2 C8.66 2 9.32 2 10 2 C9.85769192 3.41702513 9.71099254 4.8336096 9.5625 6.25 C9.48128906 7.03890625 9.40007812 7.8278125 9.31640625 8.640625 C9.02365007 10.82364639 8.57935581 12.8773182 8 15 C0.25 14.25 0.25 14.25 -2 12 C-2.01171875 9.6875 -2.01171875 9.6875 -1.6875 7 C-1.58824219 6.113125 -1.48898438 5.22625 -1.38671875 4.3125 C-1 2 -1 2 0 0 Z " fill="#DBF1FF" transform="translate(55,60)"/>
<path d="M0 0 C0.99 0.33 1.98 0.66 3 1 C2.34 4.63 1.68 8.26 1 12 C2.32 11.67 3.64 11.34 5 11 C6.1375213 8.91965706 6.1375213 8.91965706 6.75 6.4375 C6.99234375 5.61121094 7.2346875 4.78492188 7.484375 3.93359375 C7.65453125 3.29550781 7.8246875 2.65742187 8 2 C8.99 2 9.98 2 11 2 C10.01 6.29 9.02 10.58 8 15 C-0.875 13.125 -0.875 13.125 -2 12 C-2.31121486 7.53925362 -1.58593284 4.1630737 0 0 Z " fill="#C5EAFF" transform="translate(28,53)"/>
<path d="M0 0 C0.99 0 1.98 0 3 0 C1.68 5.28 0.36 10.56 -1 16 C1.31 16.33 3.62 16.66 6 17 C6.33 17.99 6.66 18.98 7 20 C3.7 19.34 0.4 18.68 -3 18 C-4.16915233 13.3233907 -3.45376457 11.30322949 -2.0625 6.75 C-1.68222656 5.48671875 -1.30195313 4.2234375 -0.91015625 2.921875 C-0.60980469 1.95765625 -0.30945313 0.9934375 0 0 Z " fill="#D7F0FF" transform="translate(17,45)"/>
<path d="M0 0 C2.875 -0.125 2.875 -0.125 6 0 C6.66 0.66 7.32 1.32 8 2 C7.96712417 4.72869407 7.43602229 7.2966618 7 10 C6.34 9.67 5.68 9.34 5 9 C5 8.34 5 7.68 5 7 C4.01 6.67 3.02 6.34 2 6 C3.32 6 4.64 6 6 6 C5.67 5.01 5.34 4.02 5 3 C3.02 3 1.04 3 -1 3 C-0.67 2.01 -0.34 1.02 0 0 Z " fill="#EBF7FF" transform="translate(43,57)"/>
<path d="M0 0 C1.98 0 3.96 0 6 0 C5.67 1.32 5.34 2.64 5 4 C3.35 4 1.7 4 0 4 C0 2.68 0 1.36 0 0 Z " fill="#14A9FF" transform="translate(42,64)"/>
<path d="M0 0 C0.99 0 1.98 0 3 0 C2.34 3.63 1.68 7.26 1 11 C0.67 11 0.34 11 0 11 C-0.19491452 9.54263913 -0.38069358 8.08405407 -0.5625 6.625 C-0.66691406 5.81289062 -0.77132812 5.00078125 -0.87890625 4.1640625 C-1 2 -1 2 0 0 Z " fill="#BAE6FF" transform="translate(55,60)"/>
<path d="M0 0 C0.99 0.33 1.98 0.66 3 1 C2.01 4.3 1.02 7.6 0 11 C-0.33 11 -0.66 11 -1 11 C-1.14285714 3.57142857 -1.14285714 3.57142857 0 0 Z " fill="#EBF7FF" transform="translate(28,53)"/>
<path d="M0 0 C0.99 0 1.98 0 3 0 C2.34 2.64 1.68 5.28 1 8 C0.34 7.67 -0.32 7.34 -1 7 C-0.67 4.69 -0.34 2.38 0 0 Z " fill="#D9F1FF" transform="translate(36,55)"/>
</svg>
